# xmcd
#
# Track frame offsets:
#	150
#	11744
#	28700
#	39711
#	56337
#	70626
#	87019
#	102657
#	129031
#	142402
#	158172
#
# Disc length: 2436 seconds
#
# Revision: 1
# Processed by: cddbd v1.5.2PL0 Copyright (c) Steve Scherf et al.
# Submitted via: audiograbber 1.83.01
#
DISCID=8f09820b
DTITLE=Holy Moses - 30th Anniversary - In the power of now
DYEAR=2012
DGENRE=Thrash Metal
TTITLE0=clash my soul
TTITLE1=jungle of lies
TTITLE2=finished with the dogs
TTITLE3=symbol of spirit
TTITLE4=world chaos
TTITLE5=ssp
TTITLE6=borderland
TTITLE7=lost in the maze
TTITLE8=walpurgisnight
TTITLE9=welcome to the real world
TTITLE10=near dark
EXTD=
EXTT0=
EXTT1=
EXTT2=
EXTT3=
EXTT4=
EXTT5=
EXTT6=
EXTT7=
EXTT8=
EXTT9=
EXTT10=
PLAYORDER=
